# xmcd
#
# Track frame offsets:
#	182
#	15515
#	33180
#	48327
#	62415
#	77460
#	104892
#	117762
#	134365
#	154167
#	173130
#	200680
#	220450
#	246132
#	263415
#	283297
#
# Disc length: 4391 seconds
#
# Revision: 1
# Processed by: cddbd v1.4PL0 Copyright (c) Steve Scherf et al.
# Submitted via: audiograbber 1.81.03
#
DISCID=de112510
DTITLE=Various Artist - Blues From The Twin Cities
DYEAR=1996
DGENRE=Blues
TTITLE0=Senders - Wrecking Crew Blues
TTITLE1=R.J. Mischo - Always Late
TTITLE2=Rockin' Daddy and The Rough Cuts - Straight Shooter
TTITLE3=Joe T. Cook - It Ain't So Easy
TTITLE4=Sonny Rodgers - Big Leg Woman
TTITLE5=Lady Blue - Straight Up Tell Me
TTITLE6=Bryan Koenig and The Standback Blues Band - Wake Up!
TTITLE7=Boogiemen - Livin' Doll
TTITLE8=R.J. and Kid Morgan - Can't Get Nothing
TTITLE9=Mojo Buford - Sittin' Here Thinkin'
TTITLE10=Milwaukee Slim - No Use Waitin'
TTITLE11=Joel Johnson Band - Power Of A Woman
TTITLE12=Mojo Buford - Lena
TTITLE13=Bobby Johnson - Dag Nab It
TTITLE14=Joel Johnson Band - Harp Attack
TTITLE15=Hook's Combo - The Blues Is All Around Me
EXTD=
EXTT0=
EXTT1=
EXTT2=
EXTT3=
EXTT4=
EXTT5=
EXTT6=
EXTT7=
EXTT8=
EXTT9=
EXTT10=
EXTT11=
EXTT12=
EXTT13=
EXTT14=
EXTT15=
PLAYORDER=
